<?xml version="1.0" encoding="utf-8"?>
<!-- Generator: Adobe Illustrator 22.0.1, SVG Export Plug-In . SVG Version: 6.00 Build 0)  -->
<svg version="1.1" xmlns="http://www.w3.org/2000/svg" xmlns:xlink="http://www.w3.org/1999/xlink" x="0px" y="0px"
	 viewBox="0 0 934 934" style="enable-background:new 0 0 934 934;" xml:space="preserve">
<style type="text/css">
	.st0{display:none;}
	.st1{display:inline;fill:none;stroke:#000000;stroke-width:20;stroke-miterlimit:10;}
	.st2{display:inline;}
	.st3{fill:none;stroke:#FFFFFF;stroke-width:20;stroke-miterlimit:10;}
	.st4{fill:#FFFFFF;}
</style>
<g id="Layer_1" class="st0">
	
		<rect x="150.8" y="146.8" transform="matrix(0.7071 -0.7071 0.7071 0.7071 -191.4378 467.8276)" class="st1" width="636.4" height="636.4"/>
	<g class="st2">
		<path d="M290.4,304.3l-25,141.9c24.5-36.2,63.5-52.4,101.9-52.4c62.4,0,104.8,41.6,91.8,115.3c-13.1,74.1-69.6,115.3-132,115.3
			c-38,0-71.2-19-83.8-52.9l-8.7,49.3h-21.7l55.8-316.4H290.4z M254.9,508.6c-9.8,55.6,22.3,94,74.7,94c50.2,0,96.9-31.6,107.8-93.6
			c11.1-62.8-24.6-94-74.7-94C311.1,415,264.7,453,254.9,508.6z"/>
		<path d="M571.9,304.7l-21.8,123.4c17.2-23.1,56-35.7,79.5-35.7c65.1,0,106.4,39.8,92.9,116.6c-12.9,73.2-69.8,116.6-135.4,116.6
			c-27.1,0-53.1-9-65.6-35.7l-9,30.7H461l55.7-316H571.9z M539.4,509.1c-7.1,40.2,18.3,65.5,53.1,65.5c35.3,0,68-26.7,74.8-65.5
			c7.1-40.2-16.5-65.1-51.8-65.1C580.7,444,546.3,470.2,539.4,509.1z"/>
	</g>
</g>
<g id="white">
	
		<rect x="150.8" y="146.8" transform="matrix(0.7071 -0.7071 0.7071 0.7071 -191.4378 467.8276)" class="st3" width="636.4" height="636.4"/>
	<g>
		<path class="st4" d="M290.4,304.3l-25,141.9c24.5-36.2,63.5-52.4,101.9-52.4c62.4,0,104.8,41.6,91.8,115.3
			c-13.1,74.1-69.6,115.3-132,115.3c-38,0-71.2-19-83.8-52.9l-8.7,49.3h-21.7l55.8-316.4H290.4z M254.9,508.6
			c-9.8,55.6,22.3,94,74.7,94c50.2,0,96.9-31.6,107.8-93.6c11.1-62.8-24.6-94-74.7-94C311.1,415,264.7,453,254.9,508.6z"/>
		<path class="st4" d="M571.9,304.7l-21.8,123.4c17.2-23.1,56-35.7,79.5-35.7c65.1,0,106.4,39.8,92.9,116.6
			c-12.9,73.2-69.8,116.6-135.4,116.6c-27.1,0-53.1-9-65.6-35.7l-9,30.7H461l55.7-316H571.9z M539.4,509.1
			c-7.1,40.2,18.3,65.5,53.1,65.5c35.3,0,68-26.7,74.8-65.5c7.1-40.2-16.5-65.1-51.8-65.1C580.7,444,546.3,470.2,539.4,509.1z"/>
	</g>
</g>
</svg>
